<svg width="30" height="26" viewBox="0 0 30 26" fill="none" xmlns="http://www.w3.org/2000/svg">
<path d="M3.86634 13.0663L15 24.2L26.1337 13.0663C27.3714 11.8287 28.0667 10.15 28.0667 8.39967C28.0667 4.75477 25.1119 1.8 21.467 1.8C19.7167 1.8 18.038 2.49532 16.8004 3.733L15 5.53334L13.1997 3.733C11.962 2.49532 10.2834 1.8 8.53301 1.8C4.88812 1.8 1.93335 4.75477 1.93335 8.39967C1.93335 10.15 2.62867 11.8287 3.86634 13.0663Z" fill="white"/>
<path d="M15 24.2L14.2929 24.9071C14.4804 25.0946 14.7348 25.2 15 25.2C15.2652 25.2 15.5196 25.0946 15.7071 24.9071L15 24.2ZM3.86634 13.0663L3.15924 13.7734L3.15924 13.7734L3.86634 13.0663ZM13.1997 3.733L12.4926 4.44011L13.1997 3.733ZM15 5.53334L14.2929 6.24044C14.6834 6.63097 15.3166 6.63097 15.7071 6.24044L15 5.53334ZM16.8004 3.733L16.0932 3.02589V3.02589L16.8004 3.733ZM15.7071 23.4929L4.57345 12.3592L3.15924 13.7734L14.2929 24.9071L15.7071 23.4929ZM25.4266 12.3592L14.2929 23.4929L15.7071 24.9071L26.8408 13.7734L25.4266 12.3592ZM12.4926 4.44011L14.2929 6.24044L15.7071 4.82623L13.9068 3.02589L12.4926 4.44011ZM15.7071 6.24044L17.5075 4.44011L16.0932 3.02589L14.2929 4.82623L15.7071 6.24044ZM21.467 0.800003C19.4515 0.800003 17.5185 1.60068 16.0932 3.02589L17.5075 4.44011C18.5576 3.38996 19.9819 2.8 21.467 2.8V0.800003ZM27.0667 8.39967C27.0667 9.88479 26.4767 11.3091 25.4266 12.3592L26.8408 13.7734C28.266 12.3482 29.0667 10.4152 29.0667 8.39967H27.0667ZM29.0667 8.39967C29.0667 4.20249 25.6642 0.800003 21.467 0.800003V2.8C24.5596 2.8 27.0667 5.30706 27.0667 8.39967H29.0667ZM8.53301 2.8C10.0181 2.8 11.4424 3.38997 12.4926 4.44011L13.9068 3.02589C12.4816 1.60068 10.5486 0.800003 8.53301 0.800003V2.8ZM2.93335 8.39967C2.93335 5.30706 5.4404 2.8 8.53301 2.8V0.800003C4.33583 0.800003 0.93335 4.20249 0.93335 8.39967H2.93335ZM4.57345 12.3592C3.52331 11.3091 2.93335 9.88479 2.93335 8.39967H0.93335C0.93335 10.4152 1.73402 12.3482 3.15924 13.7734L4.57345 12.3592Z" fill="white"/>
</svg>
